<?xml version="1.0" encoding="utf-8"?>
<!-- Generator: Adobe Illustrator 19.0.0, SVG Export Plug-In . SVG Version: 6.00 Build 0)  -->
<svg version="1.1" id="圖層_1" xmlns="http://www.w3.org/2000/svg" xmlns:xlink="http://www.w3.org/1999/xlink" x="0px" y="0px"
	 viewBox="0 0 40 40" style="enable-background:new 0 0 40 40;" xml:space="preserve">
<style type="text/css">
	.st0{fill:#FFFFFF;}
	.st1{fill:#305E94;}
</style>
<circle id="XMLID_196_" class="st0" cx="19.5" cy="-75.8" r="20"/>
<circle id="XMLID_211_" class="st0" cx="20.1" cy="-28.8" r="20"/>
<circle id="XMLID_212_" class="st0" cx="19.5" cy="20" r="20"/>
<circle id="XMLID_213_" class="st0" cx="19.5" cy="70.8" r="20"/>
<g id="XMLID_41_">
	<path id="XMLID_47_" class="st1" d="M39.5-60.3c0,2.4-1.9,4.4-4.2,4.4H3.7c-2.3,0-4.2-2-4.2-4.4v-31.1c0-2.4,1.9-4.4,4.2-4.4h31.6
		c2.3,0,4.2,2,4.2,4.4V-60.3z"/>
	<g id="XMLID_42_">
		<path id="XMLID_43_" class="st0" d="M31.7-84.9V-69h-3.6v-2h-6.7v9h-3.6v-9H11v2H7.4v-15.9h10.4v-4.8h3.6v4.8H31.7z M11-74.4h6.8
			v-7.2H11V-74.4z M21.4-81.5v7.2h6.7v-7.2H21.4z"/>
	</g>
</g>
<g>
	<path id="XMLID_50_" class="st1" d="M40.1-13.4c0,2.4-1.9,4.4-4.2,4.4H4.3c-2.3,0-4.2-2-4.2-4.4v-31.1c0-2.4,1.9-4.4,4.2-4.4h31.6
		c2.3,0,4.2,2,4.2,4.4V-13.4z"/>
	<g>
		<path class="st0" d="M23.8-42.8l9.6,27.8h-6l-2-6h-11l-2.1,6H6.7l10-27.8H23.8z M24-25.6l-3.8-11.8L16-25.6H24z"/>
	</g>
</g>
<g id="XMLID_116_">
	<path id="XMLID_124_" class="st1" d="M19,18h-5.3l-1,1.6c0.1,0.1,0.3,0.3,0.3,0.5c0.2-0.1,0.5-0.1,0.7-0.1h5.6L19,18z"/>
	<path id="XMLID_123_" class="st1" d="M16.8,24.6c-0.3,0-0.5,0.2-0.5,0.5v0.3c0,0.3,0.2,0.5,0.5,0.5c0.3,0,0.5-0.2,0.5-0.5v-0.3
		C17.4,24.9,17.1,24.6,16.8,24.6z"/>
	<path id="XMLID_122_" class="st1" d="M12.1,27.8c-0.6,0.9-0.7,0.9-1.5,0.9c-0.8,0-1.4-0.6-1.4-1.7c0-0.8,0.7-1.9,1.1-2.5
		c-0.1,0-0.2,0-0.2,0c-1.8,0-3.3,1.5-3.3,3.3c0,1.8,1.5,3.3,3.3,3.3c1.8,0,3.3-1.5,3.3-3.3c0-0.5-0.1-1-0.4-1.5
		C12.7,26.9,12.3,27.5,12.1,27.8z"/>
	<rect id="XMLID_121_" x="19.3" y="24.6" class="st1" width="1.1" height="2.6"/>
	<path id="XMLID_120_" class="st1" d="M29.8,25.7h-0.2V29h-4.4c0.5,1.2,1.7,2.1,3.1,2.1c1.8,0,3.3-1.5,3.3-3.3c0-0.9-0.4-1.8-1-2.4
		C30.5,25.6,30.2,25.7,29.8,25.7z"/>
	<path id="XMLID_117_" class="st1" d="M35.8,0H4.2C1.9,0,0,2,0,4.4v31.1C0,38,1.9,40,4.2,40h31.6c2.3,0,4.2-2,4.2-4.4V4.4
		C40,2,38.1,0,35.8,0z M33.9,24.2h-1.6c0.9,1,1.5,2.2,1.5,3.7c0,2.9-2.4,5.3-5.3,5.3c-2.5,0-4.7-1.8-5.2-4.1h-4l-0.9,1.2
		c-0.3,0.4-1,0.4-1.6,0c-0.5-0.3-0.7-0.8-0.6-1.2h-0.9c-0.5,2.4-2.7,4.1-5.2,4.1c-2.9,0-5.3-2.4-5.3-5.3c0-2.9,2.4-5.3,5.3-5.3
		c0.1,0,0.1,0,0.2,0c-0.3-1-1-3.4-0.1-3.6l2.3-3.8c0.3-0.5,1-0.6,1.6-0.2c0.4,0.2,0.6,0.6,0.7,0.9h3.7c0-0.8,0-3,1.2-3.9
		c-0.7-0.5-1.2-1.3-1.2-2.3c0-1.5,1.3-2.8,2.8-2.8c1.5,0,2.8,1.3,2.8,2.8c0,1.2-0.7,2.2-1.7,2.6c1,1,1.8,3.5,2.4,7.8h5.1
		c1,0,1.8,0.6,2.1,1.4c0,0,0,0,0,0h1.9c0.7,0,1.4,0.6,1.4,1.3C35.3,23.6,34.6,24.2,33.9,24.2z"/>
</g>
<g id="XMLID_151_">
	<polygon id="XMLID_157_" class="st1" points="26.7,60.5 12.8,60.5 10,66.8 29.7,66.8 	"/>
	<path id="XMLID_154_" class="st1" d="M35.7,50.8H4c-2.3,0-4.2,2-4.2,4.4v31.1c0,2.5,1.9,4.4,4.2,4.4h31.6c2.3,0,4.2-2,4.2-4.4V55.3
		C39.8,52.8,38,50.8,35.7,50.8z M34.8,78h-2.9v3.5c0,1-0.8,1.8-1.8,1.8c-1,0-1.8-0.8-1.8-1.8V78H11.4v3.5c0,1-0.8,1.8-1.8,1.8
		c-1,0-1.8-0.8-1.8-1.8V78H4.9v-9.6c0-1,0.8-1.8,1.8-1.8h1.2l3-6.5c0.5-1,0.8-1.8,1.8-1.8h14.8c1,0,1.2,0.8,1.8,1.8l2.7,6.5H33
		c1,0,1.8,0.8,1.8,1.8V78z"/>
	<circle id="XMLID_153_" class="st1" cx="9.9" cy="71.2" r="2.1"/>
	<circle id="XMLID_152_" class="st1" cx="30.3" cy="71.2" r="2.1"/>
</g>
</svg>
