<?xml version="1.0" encoding="utf-8"?>
<!-- Generator: Adobe Illustrator 19.0.0, SVG Export Plug-In . SVG Version: 6.00 Build 0)  -->
<svg version="1.1" id="圖層_1" xmlns="http://www.w3.org/2000/svg" xmlns:xlink="http://www.w3.org/1999/xlink" x="0px" y="0px"
	 viewBox="0 0 40.5 40.5" style="enable-background:new 0 0 40.5 40.5;" xml:space="preserve">
<style type="text/css">
	.st0{fill:#FFFFFF;}
	.st1{fill:#305E94;}
</style>
<circle id="XMLID_196_" class="st0" cx="20.2" cy="20.2" r="20"/>
<circle id="XMLID_211_" class="st0" cx="20.8" cy="67.2" r="20"/>
<circle id="XMLID_212_" class="st0" cx="20.2" cy="116.1" r="20"/>
<circle id="XMLID_213_" class="st0" cx="20.2" cy="166.9" r="20"/>
<g id="XMLID_41_">
	<path id="XMLID_47_" class="st1" d="M40.2,35.8c0,2.4-1.9,4.4-4.2,4.4H4.4c-2.3,0-4.2-2-4.2-4.4V4.7c0-2.4,1.9-4.4,4.2-4.4H36
		c2.3,0,4.2,2,4.2,4.4V35.8z"/>
	<g id="XMLID_42_">
		<path id="XMLID_43_" class="st0" d="M32.4,11.2v15.9h-3.6v-2h-6.7v9h-3.6v-9h-6.8v2H8V11.2h10.4V6.4h3.6v4.8H32.4z M11.7,21.7h6.8
			v-7.2h-6.8V21.7z M22.1,14.5v7.2h6.7v-7.2H22.1z"/>
	</g>
</g>
<g>
	<path id="XMLID_50_" class="st1" d="M40.8,82.7c0,2.4-1.9,4.4-4.2,4.4H5c-2.3,0-4.2-2-4.2-4.4V51.6c0-2.4,1.9-4.4,4.2-4.4h31.6
		c2.3,0,4.2,2,4.2,4.4V82.7z"/>
	<g>
		<path class="st0" d="M24.5,53.3L34.2,81h-6l-2-6h-11l-2.1,6H7.4l10-27.8H24.5z M24.7,70.5l-3.8-11.8l-4.1,11.8H24.7z"/>
	</g>
</g>
<g id="XMLID_116_">
	<path id="XMLID_124_" class="st1" d="M19.6,114.1h-5.3l-1,1.6c0.1,0.1,0.3,0.3,0.3,0.5c0.2-0.1,0.5-0.1,0.7-0.1h5.6L19.6,114.1z"/>
	<path id="XMLID_123_" class="st1" d="M17.5,120.7c-0.3,0-0.5,0.2-0.5,0.5v0.3c0,0.3,0.2,0.5,0.5,0.5c0.3,0,0.5-0.2,0.5-0.5v-0.3
		C18,121,17.8,120.7,17.5,120.7z"/>
	<path id="XMLID_122_" class="st1" d="M12.8,123.9c-0.6,0.9-0.7,0.9-1.5,0.9c-0.8,0-1.4-0.6-1.4-1.7c0-0.8,0.7-1.9,1.1-2.5
		c-0.1,0-0.2,0-0.2,0c-1.8,0-3.3,1.5-3.3,3.3c0,1.8,1.5,3.3,3.3,3.3c1.8,0,3.3-1.5,3.3-3.3c0-0.5-0.1-1-0.4-1.5
		C13.4,123,13,123.6,12.8,123.9z"/>
	<rect id="XMLID_121_" x="20" y="120.7" class="st1" width="1.1" height="2.6"/>
	<path id="XMLID_120_" class="st1" d="M30.5,121.7h-0.2v3.4H26c0.5,1.2,1.7,2.1,3.1,2.1c1.8,0,3.3-1.5,3.3-3.3c0-0.9-0.4-1.8-1-2.4
		C31.1,121.7,30.8,121.7,30.5,121.7z"/>
	<path id="XMLID_117_" class="st1" d="M36.5,96.1H4.9c-2.3,0-4.2,2-4.2,4.4v31.1c0,2.5,1.9,4.4,4.2,4.4h31.6c2.3,0,4.2-2,4.2-4.4
		v-31.1C40.7,98.1,38.8,96.1,36.5,96.1z M34.6,120.2h-1.6c0.9,1,1.5,2.2,1.5,3.7c0,2.9-2.4,5.3-5.3,5.3c-2.5,0-4.7-1.8-5.2-4.1h-4
		l-0.9,1.2c-0.3,0.4-1,0.4-1.6,0c-0.5-0.3-0.7-0.8-0.6-1.2H16c-0.5,2.4-2.7,4.1-5.2,4.1c-2.9,0-5.3-2.4-5.3-5.3
		c0-2.9,2.4-5.3,5.3-5.3c0.1,0,0.1,0,0.2,0c-0.3-1-1-3.4-0.1-3.6l2.3-3.8c0.3-0.5,1-0.6,1.6-0.2c0.4,0.2,0.6,0.6,0.7,0.9h3.7
		c0-0.8,0-3,1.2-3.9c-0.7-0.5-1.2-1.3-1.2-2.3c0-1.5,1.3-2.8,2.8-2.8c1.5,0,2.8,1.3,2.8,2.8c0,1.2-0.7,2.2-1.7,2.6
		c1,1,1.8,3.5,2.4,7.8h5.1c1,0,1.8,0.6,2.1,1.4c0,0,0,0,0,0h1.9c0.7,0,1.4,0.6,1.4,1.3C35.9,119.6,35.3,120.2,34.6,120.2z"/>
</g>
<g id="XMLID_151_">
	<polygon id="XMLID_157_" class="st1" points="27.4,156.6 13.5,156.6 10.6,162.8 30.4,162.8 	"/>
	<path id="XMLID_154_" class="st1" d="M36.3,146.9H4.7c-2.3,0-4.2,2-4.2,4.4v31.1c0,2.5,1.9,4.4,4.2,4.4h31.6c2.3,0,4.2-2,4.2-4.4
		v-31.1C40.5,148.9,38.7,146.9,36.3,146.9z M35.4,174h-2.9v3.5c0,1-0.8,1.8-1.8,1.8c-1,0-1.8-0.8-1.8-1.8V174H12.1v3.5
		c0,1-0.8,1.8-1.8,1.8c-1,0-1.8-0.8-1.8-1.8V174H5.6v-9.6c0-1,0.8-1.8,1.8-1.8h1.2l3-6.5c0.5-1,0.8-1.8,1.8-1.8h14.8
		c1,0,1.2,0.8,1.8,1.8l2.7,6.5h1.1c1,0,1.8,0.8,1.8,1.8V174z"/>
	<circle id="XMLID_153_" class="st1" cx="10.6" cy="167.3" r="2.1"/>
	<circle id="XMLID_152_" class="st1" cx="31" cy="167.3" r="2.1"/>
</g>
</svg>
