<?xml version="1.0" encoding="utf-8"?>
<!-- Generator: Adobe Illustrator 19.0.0, SVG Export Plug-In . SVG Version: 6.00 Build 0)  -->
<svg version="1.1" id="圖層_1" xmlns="http://www.w3.org/2000/svg" xmlns:xlink="http://www.w3.org/1999/xlink" x="0px" y="0px"
	 viewBox="0 0 40.5 40.5" style="enable-background:new 0 0 40.5 40.5;" xml:space="preserve">
<style type="text/css">
	.st0{fill:#FFFFFF;}
	.st1{fill:#305E94;}
</style>
<circle id="XMLID_196_" class="st0" cx="19.7" cy="-26.7" r="20"/>
<circle id="XMLID_211_" class="st0" cx="20.2" cy="20.3" r="20"/>
<circle id="XMLID_212_" class="st0" cx="19.7" cy="69.2" r="20"/>
<circle id="XMLID_213_" class="st0" cx="19.7" cy="120" r="20"/>
<g id="XMLID_41_">
	<path id="XMLID_47_" class="st1" d="M39.7-11.1c0,2.4-1.9,4.4-4.2,4.4H3.9c-2.3,0-4.2-2-4.2-4.4v-31.1c0-2.4,1.9-4.4,4.2-4.4h31.6
		c2.3,0,4.2,2,4.2,4.4V-11.1z"/>
	<g id="XMLID_42_">
		<path id="XMLID_43_" class="st0" d="M31.9-35.7v15.9h-3.6v-2h-6.7v9h-3.6v-9h-6.8v2H7.5v-15.9h10.4v-4.8h3.6v4.8H31.9z M11.1-25.2
			h6.8v-7.2h-6.8V-25.2z M21.5-32.4v7.2h6.7v-7.2H21.5z"/>
	</g>
</g>
<g>
	<path id="XMLID_50_" class="st1" d="M40.2,35.8c0,2.4-1.9,4.4-4.2,4.4H4.4c-2.3,0-4.2-2-4.2-4.4V4.7c0-2.4,1.9-4.4,4.2-4.4H36
		c2.3,0,4.2,2,4.2,4.4V35.8z"/>
	<g>
		<path class="st0" d="M24,6.4l9.6,27.8h-6l-2-6h-11l-2.1,6H6.9l10-27.8H24z M24.1,23.6l-3.8-11.8l-4.1,11.8H24.1z"/>
	</g>
</g>
<g id="XMLID_116_">
	<path id="XMLID_124_" class="st1" d="M19.1,67.2h-5.3l-1,1.6c0.1,0.1,0.3,0.3,0.3,0.5c0.2-0.1,0.5-0.1,0.7-0.1h5.6L19.1,67.2z"/>
	<path id="XMLID_123_" class="st1" d="M17,73.8c-0.3,0-0.5,0.2-0.5,0.5v0.3c0,0.3,0.2,0.5,0.5,0.5c0.3,0,0.5-0.2,0.5-0.5v-0.3
		C17.5,74.1,17.3,73.8,17,73.8z"/>
	<path id="XMLID_122_" class="st1" d="M12.2,77c-0.6,0.9-0.7,0.9-1.5,0.9c-0.8,0-1.4-0.6-1.4-1.7c0-0.8,0.7-1.9,1.1-2.5
		c-0.1,0-0.2,0-0.2,0c-1.8,0-3.3,1.5-3.3,3.3c0,1.8,1.5,3.3,3.3,3.3c1.8,0,3.3-1.5,3.3-3.3c0-0.5-0.1-1-0.4-1.5
		C12.8,76.1,12.5,76.7,12.2,77z"/>
	<rect id="XMLID_121_" x="19.4" y="73.8" class="st1" width="1.1" height="2.6"/>
	<path id="XMLID_120_" class="st1" d="M30,74.8h-0.2v3.4h-4.4c0.5,1.2,1.7,2.1,3.1,2.1c1.8,0,3.3-1.5,3.3-3.3c0-0.9-0.4-1.8-1-2.4
		C30.6,74.8,30.3,74.8,30,74.8z"/>
	<path id="XMLID_117_" class="st1" d="M35.9,49.2H4.3c-2.3,0-4.2,2-4.2,4.4v31.1c0,2.5,1.9,4.4,4.2,4.4h31.6c2.3,0,4.2-2,4.2-4.4
		V53.6C40.1,51.2,38.3,49.2,35.9,49.2z M34,73.3h-1.6c0.9,1,1.5,2.2,1.5,3.7c0,2.9-2.4,5.3-5.3,5.3c-2.5,0-4.7-1.8-5.2-4.1h-4
		l-0.9,1.2c-0.3,0.4-1,0.4-1.6,0c-0.5-0.3-0.7-0.8-0.6-1.2h-0.9c-0.5,2.4-2.7,4.1-5.2,4.1c-2.9,0-5.3-2.4-5.3-5.3
		c0-2.9,2.4-5.3,5.3-5.3c0.1,0,0.1,0,0.2,0c-0.3-1-1-3.4-0.1-3.6l2.3-3.8c0.3-0.5,1-0.6,1.6-0.2c0.4,0.2,0.6,0.6,0.7,0.9h3.7
		c0-0.8,0-3,1.2-3.9c-0.7-0.5-1.2-1.3-1.2-2.3c0-1.5,1.3-2.8,2.8-2.8c1.5,0,2.8,1.3,2.8,2.8c0,1.2-0.7,2.2-1.7,2.6
		c1,1,1.8,3.5,2.4,7.8H30c1,0,1.8,0.6,2.1,1.4c0,0,0,0,0,0H34c0.7,0,1.4,0.6,1.4,1.3C35.4,72.7,34.8,73.3,34,73.3z"/>
</g>
<g id="XMLID_151_">
	<polygon id="XMLID_157_" class="st1" points="26.8,109.7 12.9,109.7 10.1,115.9 29.9,115.9 	"/>
	<path id="XMLID_154_" class="st1" d="M35.8,100H4.2c-2.3,0-4.2,2-4.2,4.4v31.1c0,2.5,1.9,4.4,4.2,4.4h31.6c2.3,0,4.2-2,4.2-4.4
		v-31.1C40,102,38.1,100,35.8,100z M34.9,127.1H32v3.5c0,1-0.8,1.8-1.8,1.8c-1,0-1.8-0.8-1.8-1.8v-3.5H11.5v3.5c0,1-0.8,1.8-1.8,1.8
		c-1,0-1.8-0.8-1.8-1.8v-3.5H5.1v-9.6c0-1,0.8-1.8,1.8-1.8H8l3-6.5c0.5-1,0.8-1.8,1.8-1.8h14.8c1,0,1.2,0.8,1.8,1.8l2.7,6.5h1.1
		c1,0,1.8,0.8,1.8,1.8V127.1z"/>
	<circle id="XMLID_153_" class="st1" cx="10" cy="120.4" r="2.1"/>
	<circle id="XMLID_152_" class="st1" cx="30.5" cy="120.4" r="2.1"/>
</g>
</svg>
