<?xml version="1.0" encoding="utf-8"?>
<!-- Generator: Adobe Illustrator 19.0.0, SVG Export Plug-In . SVG Version: 6.00 Build 0)  -->
<svg version="1.1" id="圖層_1" xmlns="http://www.w3.org/2000/svg" xmlns:xlink="http://www.w3.org/1999/xlink" x="0px" y="0px"
	 viewBox="0 0 40 40" style="enable-background:new 0 0 40 40;" xml:space="preserve">
<style type="text/css">
	.st0{fill:#FFFFFF;}
	.st1{fill:#305E94;}
</style>
<circle id="XMLID_196_" class="st0" cx="19.7" cy="-126.7" r="20"/>
<circle id="XMLID_211_" class="st0" cx="20.3" cy="-79.7" r="20"/>
<circle id="XMLID_212_" class="st0" cx="19.7" cy="-30.8" r="20"/>
<circle id="XMLID_213_" class="st0" cx="19.7" cy="20" r="20"/>
<g id="XMLID_41_">
	<path id="XMLID_47_" class="st1" d="M39.7-111.1c0,2.4-1.9,4.4-4.2,4.4H3.9c-2.3,0-4.2-2-4.2-4.4v-31.1c0-2.4,1.9-4.4,4.2-4.4h31.6
		c2.3,0,4.2,2,4.2,4.4V-111.1z"/>
	<g id="XMLID_42_">
		<path id="XMLID_43_" class="st0" d="M31.9-135.7v15.9h-3.6v-2h-6.7v9H18v-9h-6.8v2H7.5v-15.9H18v-4.8h3.6v4.8H31.9z M11.1-125.2
			H18v-7.2h-6.8V-125.2z M21.6-132.4v7.2h6.7v-7.2H21.6z"/>
	</g>
</g>
<g>
	<path id="XMLID_50_" class="st1" d="M40.3-64.2c0,2.4-1.9,4.4-4.2,4.4H4.4c-2.3,0-4.2-2-4.2-4.4v-31.1c0-2.4,1.9-4.4,4.2-4.4h31.6
		c2.3,0,4.2,2,4.2,4.4V-64.2z"/>
	<g>
		<path class="st0" d="M24-93.7l9.6,27.8h-6l-2-6h-11l-2.1,6H6.9l10-27.8H24z M24.1-76.4l-3.8-11.8l-4.1,11.8H24.1z"/>
	</g>
</g>
<g id="XMLID_116_">
	<path id="XMLID_124_" class="st1" d="M19.1-32.8h-5.3l-1,1.6c0.1,0.1,0.3,0.3,0.3,0.5c0.2-0.1,0.5-0.1,0.7-0.1h5.6L19.1-32.8z"/>
	<path id="XMLID_123_" class="st1" d="M17-26.2c-0.3,0-0.5,0.2-0.5,0.5v0.3c0,0.3,0.2,0.5,0.5,0.5c0.3,0,0.5-0.2,0.5-0.5v-0.3
		C17.5-26,17.3-26.2,17-26.2z"/>
	<path id="XMLID_122_" class="st1" d="M12.3-23c-0.6,0.9-0.7,0.9-1.5,0.9c-0.8,0-1.4-0.6-1.4-1.7c0-0.8,0.7-1.9,1.1-2.5
		c-0.1,0-0.2,0-0.2,0c-1.8,0-3.3,1.5-3.3,3.3c0,1.8,1.5,3.3,3.3,3.3c1.8,0,3.3-1.5,3.3-3.3c0-0.5-0.1-1-0.4-1.5
		C12.9-23.9,12.5-23.3,12.3-23z"/>
	<rect id="XMLID_121_" x="19.4" y="-26.2" class="st1" width="1.1" height="2.6"/>
	<path id="XMLID_120_" class="st1" d="M30-25.2h-0.2v3.4h-4.4c0.5,1.2,1.7,2.1,3.1,2.1c1.8,0,3.3-1.5,3.3-3.3c0-0.9-0.4-1.8-1-2.4
		C30.6-25.2,30.3-25.2,30-25.2z"/>
	<path id="XMLID_117_" class="st1" d="M36-50.8H4.3c-2.3,0-4.2,2-4.2,4.4v31.1c0,2.5,1.9,4.4,4.2,4.4H36c2.3,0,4.2-2,4.2-4.4v-31.1
		C40.2-48.8,38.3-50.8,36-50.8z M34.1-26.7h-1.6c0.9,1,1.5,2.2,1.5,3.7c0,2.9-2.4,5.3-5.3,5.3c-2.5,0-4.7-1.8-5.2-4.1h-4l-0.9,1.2
		c-0.3,0.4-1,0.4-1.6,0c-0.5-0.3-0.7-0.8-0.6-1.2h-0.9c-0.5,2.4-2.7,4.1-5.2,4.1c-2.9,0-5.3-2.4-5.3-5.3c0-2.9,2.4-5.3,5.3-5.3
		c0.1,0,0.1,0,0.2,0c-0.3-1-1-3.4-0.1-3.6l2.3-3.8c0.3-0.5,1-0.6,1.6-0.2c0.4,0.2,0.6,0.6,0.7,0.9h3.7c0-0.8,0-3,1.2-3.9
		c-0.7-0.5-1.2-1.3-1.2-2.3c0-1.5,1.3-2.8,2.8-2.8c1.5,0,2.8,1.3,2.8,2.8c0,1.2-0.7,2.2-1.7,2.6c1,1,1.8,3.5,2.4,7.8H30
		c1,0,1.8,0.6,2.1,1.4c0,0,0,0,0,0h1.9c0.7,0,1.4,0.6,1.4,1.3C35.4-27.3,34.8-26.7,34.1-26.7z"/>
</g>
<g id="XMLID_151_">
	<polygon id="XMLID_157_" class="st1" points="26.9,9.7 13,9.7 10.1,15.9 29.9,15.9 	"/>
	<path id="XMLID_154_" class="st1" d="M35.8,0H4.2C1.9,0,0,2,0,4.4v31.1C0,38,1.9,40,4.2,40h31.6c2.3,0,4.2-2,4.2-4.4V4.4
		C40,2,38.1,0,35.8,0z M34.9,27.1H32v3.5c0,1-0.8,1.8-1.8,1.8c-1,0-1.8-0.8-1.8-1.8v-3.5H11.5v3.5c0,1-0.8,1.8-1.8,1.8
		c-1,0-1.8-0.8-1.8-1.8v-3.5H5.1v-9.6c0-1,0.8-1.8,1.8-1.8h1.2l3-6.5c0.5-1,0.8-1.8,1.8-1.8h14.8c1,0,1.2,0.8,1.8,1.8l2.7,6.5h1.1
		c1,0,1.8,0.8,1.8,1.8V27.1z"/>
	<circle id="XMLID_153_" class="st1" cx="10" cy="20.4" r="2.1"/>
	<circle id="XMLID_152_" class="st1" cx="30.5" cy="20.4" r="2.1"/>
</g>
</svg>
