<?xml version="1.0" encoding="utf-8"?>
<!-- Generator: Adobe Illustrator 19.0.0, SVG Export Plug-In . SVG Version: 6.00 Build 0)  -->
<svg version="1.1" id="圖層_1" xmlns="http://www.w3.org/2000/svg" xmlns:xlink="http://www.w3.org/1999/xlink" x="0px" y="0px"
	 viewBox="0 0 150 150" style="enable-background:new 0 0 150 150;" xml:space="preserve">
<style type="text/css">
	.st0{opacity:0.2;}
	.st1{fill:#E6B58A;}
	.st2{fill:#D9AB82;}
	.st3{fill:#E16B5A;}
	.st4{fill:#F2CF61;}
	.st5{fill:#4AB8A1;}
	.st6{fill:#2995CC;}
	.st7{fill:#263740;}
	.st8{fill:#1E2C33;}
	.st9{fill:#E6E6E6;}
	.st10{fill:#CCCCCC;}
	.st11{fill:#406A80;}
</style>
<g>
	<g class="st0">
		<g>
			<path d="M74.3,49.4c-12,0-7,30.3-21.1,26.8c-19.4-4.8-28.1,0.7-28.1,12.9c0,21.9,22,39.7,49.2,39.7c27.2,0,49.2-17.8,49.2-39.7
				S101.5,49.4,74.3,49.4z M41.5,93.8c-3.2,0-5.9-2.6-5.9-5.9c0-3.2,2.6-5.9,5.9-5.9c3.2,0,5.9,2.6,5.9,5.9
				C47.4,91.1,44.8,93.8,41.5,93.8z"/>
			<g>
				<path id="XMLID_88_" d="M48.5,76.2c1.7,0.4,3.1,0.3,4.3-0.1c-5.5-1.4-10.2-1.8-14-1.6C41.7,74.7,44.9,75.3,48.5,76.2z"/>
				<path id="XMLID_83_" d="M74.3,49.4c-0.4,0-0.8,0-1.2,0.1c25.5,1.5,45.7,18.6,45.7,39.6c0,21.3-20.8,38.7-46.9,39.7
					c0.8,0,1.6,0,2.3,0c27.2,0,49.2-17.8,49.2-39.7S101.5,49.4,74.3,49.4z"/>
			</g>
			<circle id="XMLID_78_" cx="59.1" cy="113.7" r="7"/>
			<circle id="XMLID_77_" cx="80.2" cy="116" r="7"/>
			<circle id="XMLID_76_" cx="100.1" cy="106.6" r="7"/>
			<circle id="XMLID_73_" cx="109.5" cy="85.6" r="7"/>
		</g>
		<g>
			<path id="XMLID_72_" d="M83.2,72.5c5.4-0.9,10.6-4.8,15.5-9.7c11.1-11.1,19.4-29,18.4-30c-1-1-18.5,6.9-30,18.4
				c-4.8,4.8-8.7,10.2-9.7,15.5L83.2,72.5z"/>
			<path id="XMLID_71_" d="M117.1,32.8c-0.3-0.3-1.7,0.1-3.9,1c-2.5,6.1-9.2,17.9-17.4,26.1c-4.9,4.9-10.1,8.8-15.5,9.7l2.9,2.9
				c5.4-0.9,10.6-4.8,15.5-9.7C109.8,51.6,118.1,33.8,117.1,32.8z"/>
			<path id="XMLID_70_" d="M81.7,57.4c-2.2,3-3.8,6.2-4.3,9.3l5.8,5.8c3.1-0.5,6.3-2.1,9.3-4.3L81.7,57.4z"/>
			<path id="XMLID_69_" d="M89.5,65.3c-3,2.2-6.1,3.7-9.3,4.3l2.9,2.9c3.1-0.5,6.3-2.1,9.3-4.3L89.5,65.3z"/>
			<path id="XMLID_68_" d="M83.2,72.5l-5.8-5.8c-13.1,0.5-7.3,14-14.5,18.4c5,0,13.6,0,17-3.4C83.2,78.3,83.4,74.8,83.2,72.5z"/>
			<path id="XMLID_67_" d="M82.7,72l-4.4-4.4c-9.6,0.4-4.8,10.8-10.2,14c3.7,0,9.6,0.1,12.1-2.4C82.7,76.8,82.9,73.7,82.7,72z"/>
		</g>
	</g>
	<g>
		<path class="st1" d="M70.3,47c-12,0-7,30.3-21.1,26.8C29.9,69,21.1,74.5,21.1,86.7c0,21.9,22,39.7,49.2,39.7s49.2-17.8,49.2-39.7
			S97.5,47,70.3,47z M37.5,91.4c-3.2,0-5.9-2.6-5.9-5.9c0-3.2,2.6-5.9,5.9-5.9c3.2,0,5.9,2.6,5.9,5.9C43.4,88.8,40.7,91.4,37.5,91.4
			z"/>
		<g>
			<path id="XMLID_64_" class="st2" d="M44.5,73.8c1.7,0.4,3.1,0.3,4.3-0.1c-5.5-1.4-10.2-1.8-14-1.6C37.7,72.4,40.9,72.9,44.5,73.8
				z"/>
			<path id="XMLID_63_" class="st2" d="M70.3,47c-0.4,0-0.8,0-1.2,0.1c25.5,1.5,45.7,18.6,45.7,39.6c0,21.3-20.8,38.7-46.9,39.7
				c0.8,0,1.6,0,2.3,0c27.2,0,49.2-17.8,49.2-39.7S97.5,47,70.3,47z"/>
		</g>
		<circle id="XMLID_62_" class="st3" cx="55.1" cy="111.3" r="7"/>
		<circle id="XMLID_61_" class="st4" cx="76.2" cy="113.7" r="7"/>
		<circle id="XMLID_60_" class="st5" cx="96.1" cy="104.3" r="7"/>
		<circle id="XMLID_59_" class="st6" cx="105.5" cy="83.2" r="7"/>
	</g>
	<g>
		<path id="XMLID_58_" class="st7" d="M79.1,70.1c5.4-0.9,10.6-4.8,15.5-9.7c11.1-11.1,19.4-29,18.4-30c-1-1-18.5,6.9-30,18.4
			c-4.8,4.8-8.7,10.2-9.7,15.5L79.1,70.1z"/>
		<path id="XMLID_57_" class="st8" d="M113,30.4c-0.3-0.3-1.7,0.1-3.9,1c-2.5,6.1-9.2,17.9-17.4,26.1c-4.9,4.9-10.1,8.8-15.5,9.7
			l2.9,2.9c5.4-0.9,10.6-4.8,15.5-9.7C105.8,49.3,114.1,31.4,113,30.4z"/>
		<path id="XMLID_56_" class="st9" d="M77.6,55.1c-2.2,3-3.8,6.2-4.3,9.3l5.8,5.8c3.1-0.5,6.3-2.1,9.3-4.3L77.6,55.1z"/>
		<path id="XMLID_55_" class="st10" d="M85.5,62.9c-3,2.2-6.1,3.7-9.3,4.3l2.9,2.9c3.1-0.5,6.3-2.1,9.3-4.3L85.5,62.9z"/>
		<path id="XMLID_54_" class="st11" d="M79.1,70.1l-5.8-5.8c-13.1,0.5-7.3,14-14.5,18.4c5,0,13.6,0,17-3.4
			C79.1,75.9,79.4,72.4,79.1,70.1z"/>
		<path id="XMLID_53_" class="st6" d="M78.7,69.6l-4.4-4.4c-9.6,0.4-4.8,10.8-10.2,14c3.7,0,9.6,0.1,12.1-2.4
			C78.7,74.4,78.9,71.3,78.7,69.6z"/>
	</g>
</g>
</svg>
