<?xml version="1.0" encoding="utf-8"?>
<!-- Generator: Adobe Illustrator 19.0.0, SVG Export Plug-In . SVG Version: 6.00 Build 0)  -->
<svg version="1.1" id="圖層_1" xmlns="http://www.w3.org/2000/svg" xmlns:xlink="http://www.w3.org/1999/xlink" x="0px" y="0px"
	 viewBox="0 0 150 150" style="enable-background:new 0 0 150 150;" xml:space="preserve">
<style type="text/css">
	.st0{opacity:0.2;}
	.st1{fill:#C23527;}
	.st2{fill:#B33124;}
	.st3{fill:#E6E6E6;}
	.st4{fill:#B3B3B3;}
</style>
<g>
	<g class="st0">
		<path d="M106.8,108.9C106.8,108.9,106.8,108.9,106.8,108.9h-55c-0.4,0-0.7-0.2-1-0.5c-0.2-0.3-0.3-0.7-0.1-1.1l23.7-62.1
			c0.2-0.5,0.6-0.8,1.1-0.8h7.6c0.5,0,0.9,0.3,1.1,0.8l23.6,61.9c0.1,0.2,0.2,0.4,0.2,0.6C108,108.4,107.5,108.9,106.8,108.9z"/>
		<path d="M114.5,125.3H43c-0.6,0-1.2-0.5-1.2-1.2v-16.4c0-0.6,0.5-1.2,1.2-1.2h71.5c0.6,0,1.2,0.5,1.2,1.2v16.4
			C115.6,124.8,115.1,125.3,114.5,125.3z"/>
		<path d="M79.3,49.2c-5,0-9.1-4-9.1-9c0-4.9,4.1-9,9.1-9c5,0,9.1,4,9.1,9C88.4,45.2,84.3,49.2,79.3,49.2z"/>
	</g>
	<path class="st1" d="M102.5,105.5C102.5,105.5,102.5,105.5,102.5,105.5h-55c-0.4,0-0.7-0.2-1-0.5c-0.2-0.3-0.3-0.7-0.1-1.1
		l23.7-62.1c0.2-0.5,0.6-0.8,1.1-0.8h7.6c0.5,0,0.9,0.3,1.1,0.8l23.6,61.9c0.1,0.2,0.2,0.4,0.2,0.6
		C103.7,104.9,103.2,105.5,102.5,105.5z"/>
	<path id="XMLID_57_" class="st2" d="M103.5,103.7L79.9,41.8c-0.2-0.5-0.6-0.8-1.1-0.8h-4.7c0.5,0,0.9,0.3,1.1,0.8l23.6,61.9
		c0.1,0.2,0.2,0.4,0.2,0.6c0,0.6-0.5,1.2-1.2,1.2h4.7c0,0,0,0,0,0c0.6,0,1.2-0.5,1.2-1.2C103.7,104.1,103.6,103.9,103.5,103.7z"/>
	<path class="st3" d="M110.2,121.9H38.7c-0.6,0-1.2-0.5-1.2-1.2v-16.4c0-0.6,0.5-1.2,1.2-1.2h71.5c0.6,0,1.2,0.5,1.2,1.2v16.4
		C111.3,121.4,110.8,121.9,110.2,121.9z"/>
	<path id="XMLID_55_" class="st4" d="M110.2,103.1h-4.7c0.6,0,1.2,0.5,1.2,1.2v16.4c0,0.6-0.5,1.2-1.2,1.2h4.7
		c0.6,0,1.2-0.5,1.2-1.2v-16.4C111.3,103.6,110.8,103.1,110.2,103.1z"/>
	<path class="st3" d="M75,45.7c-5,0-9.1-4-9.1-9c0-4.9,4.1-9,9.1-9c5,0,9.1,4,9.1,9C84.1,41.7,80,45.7,75,45.7z"/>
	<path id="XMLID_53_" class="st4" d="M75,27.8c-0.6,0-1.1,0.1-1.6,0.1c4.3,0.8,7.5,4.4,7.5,8.8c0,4.4-3.2,8.1-7.5,8.8
		c0.5,0.1,1.1,0.1,1.6,0.1c5,0,9.1-4,9.1-9C84.1,31.8,80,27.8,75,27.8z"/>
</g>
</svg>
