<?xml version="1.0" encoding="utf-8"?>
<!-- Generator: Adobe Illustrator 19.0.0, SVG Export Plug-In . SVG Version: 6.00 Build 0)  -->
<svg version="1.1" id="圖層_1" xmlns="http://www.w3.org/2000/svg" xmlns:xlink="http://www.w3.org/1999/xlink" x="0px" y="0px"
	 viewBox="0 0 150 150" style="enable-background:new 0 0 150 150;" xml:space="preserve">
<style type="text/css">
	.st0{opacity:0.2;}
	.st1{fill:#D5D6DA;}
	.st2{fill:#F5F5F6;}
	.st3{fill:#96969B;}
	.st4{fill:#E6EDF2;}
	.st5{fill:#BDCFE6;}
	.st6{fill:#FFFFFF;}
</style>
<g>
	<path class="st0" d="M90.3,112h38.8c2.3,0,4.2-1.9,4.2-4.2V42.8c0-2.3-1.9-4.2-4.2-4.2H28.7c-2.3,0-4.2,1.9-4.2,4.2v64.9
		c0,2.3,1.9,4.2,4.2,4.2h37.9l-0.5,2.6l0,0l-1.3,7.5h-3.4c-0.5,0-0.8,0.4-0.8,0.8v0.2c0,0.5,0.4,0.8,0.8,0.8h34.2
		c0.5,0,0.8-0.4,0.8-0.8v-0.2c0-0.5-0.4-0.8-0.8-0.8h-3.8l-1.2-7.5L90.3,112z"/>
	<g>
		<polygon class="st1" points="88.3,119.3 61,119.3 64.5,99.7 85.2,99.7 		"/>
	</g>
	<g>
		<path class="st2" d="M92.1,120.2H57.5c-0.4,0-0.6-0.3-0.6-0.6V119c0-0.4,0.3-0.6,0.6-0.6h34.6c0.4,0,0.6,0.3,0.6,0.6v0.5
			C92.8,119.9,92.5,120.2,92.1,120.2z"/>
	</g>
	<g>
		<polygon class="st3" points="87,110.9 62.5,110.9 63.4,105.6 86.2,105.6 		"/>
	</g>
	<g>
		<path d="M126.4,108.3H24.1c-1.8,0-3.3-1.5-3.3-3.3V38.2c0-1.8,1.5-3.3,3.3-3.3h102.2c1.8,0,3.3,1.5,3.3,3.3V105
			C129.7,106.8,128.2,108.3,126.4,108.3z"/>
	</g>
	<g>
		<polygon class="st4" points="27.4,41.7 27.4,99 123.1,41.7 		"/>
	</g>
	<g>
		<polygon class="st5" points="123.1,41.7 27.4,99 35.1,99 123.1,46.4 		"/>
	</g>
	<g>
		<polygon class="st5" points="123.1,50.4 42,99 123.1,99 		"/>
	</g>
	<g>
		<polygon class="st4" points="123.1,46.4 35.1,99 42,99 123.1,50.4 		"/>
	</g>
	<g>
		<circle class="st6" cx="74.8" cy="103.7" r="1.8"/>
	</g>
</g>
</svg>
