<?xml version="1.0" encoding="utf-8"?>
<!-- Generator: Adobe Illustrator 19.0.0, SVG Export Plug-In . SVG Version: 6.00 Build 0)  -->
<svg version="1.1" id="圖層_1" xmlns="http://www.w3.org/2000/svg" xmlns:xlink="http://www.w3.org/1999/xlink" x="0px" y="0px"
	 viewBox="0 0 53.4 35.1" style="enable-background:new 0 0 53.4 35.1;" xml:space="preserve">
<style type="text/css">
	.st0{opacity:0.2;}
	.st1{fill:#2B3D51;}
	.st2{fill:#344960;}
	.st3{fill:#F59D1E;}
</style>
<g>
	<g class="st0">
		<g>
			<path d="M43.1,14.7c0-2.2-7.3-4-16.3-4c-9,0-16.3,1.8-16.3,4v12.9c0,0.1,0,0.2,0,0.2c0,0.1,0,0.3,0,0.4c0,3.8,7.3,6.9,16.3,6.9
				c9,0,16.3-3.1,16.3-6.9c0-0.1,0-0.3,0-0.4c0-0.1,0-0.2,0-0.2V14.7z"/>
		</g>
		<g>
			<polygon points="26.9,2.2 1.2,12.1 26.9,22 52.5,12.1 			"/>
		</g>
		<g>
			<polygon points="52,11.8 26.9,11.8 26.9,12.4 52,12.4 52,20.8 52.5,20.8 52.5,12.4 52.5,11.8 			"/>
		</g>
		<g>
			<path d="M52.2,20.6c-0.6,0-1,0.5-1,1v0.6v0.8v1.7h0.3v-1c0.1,0.1,0.1,0.1,0.2,0.1v0.8h0.3v-0.7c0.1,0,0.1,0,0.2,0
				c0.1,0,0.1,0,0.2,0v0.7h0.3V24c0.1,0,0.1-0.1,0.2-0.1v1h0.3v-1.7v-0.8v-0.6C53.3,21.1,52.8,20.6,52.2,20.6z"/>
		</g>
		<g>
			<circle cx="52.3" cy="19.9" r="1.2"/>
		</g>
	</g>
	<g>
		<g>
			<path class="st1" d="M41.9,12.5c0-2.2-7.3-4-16.3-4c-9,0-16.3,1.8-16.3,4v12.9c0,0.1,0,0.2,0,0.2c0,0.1,0,0.3,0,0.4
				c0,3.8,7.3,6.9,16.3,6.9c9,0,16.3-3.1,16.3-6.9c0-0.1,0-0.3,0-0.4c0-0.1,0-0.2,0-0.2V12.5z"/>
		</g>
		<g>
			<polygon class="st2" points="25.6,0 0,9.9 25.6,19.8 51.2,9.9 			"/>
		</g>
		<g>
			<polygon class="st3" points="50.7,9.6 25.6,9.6 25.6,10.2 50.7,10.2 50.7,18.6 51.2,18.6 51.2,10.2 51.2,9.6 			"/>
		</g>
		<g>
			<path class="st3" d="M51,18.4c-0.6,0-1,0.5-1,1v0.6v0.8v1.7h0.3v-1c0.1,0.1,0.1,0.1,0.2,0.1v0.8h0.3v-0.7c0.1,0,0.1,0,0.2,0
				c0.1,0,0.1,0,0.2,0v0.7h0.3v-0.8c0.1,0,0.1-0.1,0.2-0.1v1H52v-1.7v-0.8v-0.6C52,18.9,51.6,18.4,51,18.4z"/>
		</g>
		<g>
			<circle class="st3" cx="51" cy="17.7" r="1.2"/>
		</g>
	</g>
</g>
</svg>
