<?xml version="1.0" encoding="utf-8"?>
<!-- Generator: Adobe Illustrator 19.0.0, SVG Export Plug-In . SVG Version: 6.00 Build 0)  -->
<svg version="1.1" id="圖層_1" xmlns="http://www.w3.org/2000/svg" xmlns:xlink="http://www.w3.org/1999/xlink" x="0px" y="0px"
	 viewBox="0 0 36.4 33.6" style="enable-background:new 0 0 36.4 33.6;" xml:space="preserve">
<style type="text/css">
	.st0{opacity:0.2;}
	.st1{fill:#B38E59;}
	.st2{fill:#263740;}
	.st3{fill:#CCCCCC;}
	.st4{fill:#F5F5F5;}
	.st5{fill:#CCA266;}
</style>
<g>
	<g class="st0">
		<polygon points="29.7,6.5 8,6.5 1.3,20.2 36.4,20.2 		"/>
		<polygon points="2.7,19.8 8.5,6.5 29.2,6.5 35,19.8 		"/>
		<g>
			<path d="M30.5,16.9c0,0.9-0.8,1.7-1.7,1.7h-20c-0.9,0-1.7-0.8-1.7-1.7V3.1c0-0.9,0.8-1.7,1.7-1.7h20c0.9,0,1.7,0.8,1.7,1.7V16.9z
				"/>
			<path d="M30.5,17.3c0,0.9-0.8,1.7-1.7,1.7h-20c-0.9,0-1.7-0.8-1.7-1.7V3.5c0-0.9,0.8-1.7,1.7-1.7h20c0.9,0,1.7,0.8,1.7,1.7V17.3z
				"/>
			<rect x="14.3" y="4" width="9.6" height="0.8"/>
			<rect x="9.3" y="6.5" width="19.2" height="0.8"/>
			<rect x="9.3" y="8.1" width="19.2" height="0.8"/>
			<rect x="9.3" y="9.8" width="19.2" height="0.8"/>
		</g>
		<g>
			<path d="M32.2,24.8c0,0.9-0.8,1.7-1.7,1.7H7.2c-0.9,0-1.7-0.8-1.7-1.7V11.1c0-0.9,0.8-1.7,1.7-1.7h23.4c0.9,0,1.7,0.8,1.7,1.7
				V24.8z"/>
			<path d="M32.2,25.2c0,0.9-0.8,1.7-1.7,1.7H7.2c-0.9,0-1.7-0.8-1.7-1.7V11.5c0-0.9,0.8-1.7,1.7-1.7h23.4c0.9,0,1.7,0.8,1.7,1.7
				V25.2z"/>
			<rect x="12.6" y="11.9" width="12.5" height="0.8"/>
			<rect x="7.6" y="14.4" width="22.5" height="0.8"/>
			<rect x="7.6" y="16.1" width="22.5" height="0.8"/>
			<rect x="7.6" y="17.7" width="22.5" height="0.8"/>
		</g>
		<g>
			<path d="M24.7,20.2v1.3c0,0.5-0.4,0.8-0.8,0.8H13.4c-0.5,0-0.8-0.4-0.8-0.8v-1.3H1.3v12.5h35V20.2H24.7z"/>
			<path d="M24.7,21.1v1.3c0,0.5-0.4,0.8-0.8,0.8H13.4c-0.5,0-0.8-0.4-0.8-0.8v-1.3H1.3v12.5h35V21.1H24.7z"/>
		</g>
	</g>
	<g>
		<polygon class="st1" points="28.4,5 6.7,5 0,18.8 35,18.8 		"/>
		<polygon class="st2" points="1.3,18.4 7.2,5 27.8,5 33.7,18.4 		"/>
		<g>
			<path class="st3" d="M29.2,15.4c0,0.9-0.8,1.7-1.7,1.7h-20c-0.9,0-1.7-0.8-1.7-1.7V1.7C5.8,0.8,6.6,0,7.5,0h20
				c0.9,0,1.7,0.8,1.7,1.7V15.4z"/>
			<path class="st4" d="M29.2,15.9c0,0.9-0.8,1.7-1.7,1.7h-20c-0.9,0-1.7-0.8-1.7-1.7V2.1c0-0.9,0.8-1.7,1.7-1.7h20
				c0.9,0,1.7,0.8,1.7,1.7V15.9z"/>
			<rect x="12.9" y="2.5" class="st3" width="9.6" height="0.8"/>
			<rect x="7.9" y="5" class="st3" width="19.2" height="0.8"/>
			<rect x="7.9" y="6.7" class="st3" width="19.2" height="0.8"/>
			<rect x="7.9" y="8.3" class="st3" width="19.2" height="0.8"/>
		</g>
		<g>
			<path class="st3" d="M30.9,23.4c0,0.9-0.8,1.7-1.7,1.7H5.8c-0.9,0-1.7-0.8-1.7-1.7V9.6c0-0.9,0.8-1.7,1.7-1.7h23.4
				c0.9,0,1.7,0.8,1.7,1.7V23.4z"/>
			<path class="st4" d="M30.9,23.8c0,0.9-0.8,1.7-1.7,1.7H5.8c-0.9,0-1.7-0.8-1.7-1.7V10c0-0.9,0.8-1.7,1.7-1.7h23.4
				c0.9,0,1.7,0.8,1.7,1.7V23.8z"/>
			<rect x="11.3" y="10.4" class="st3" width="12.5" height="0.8"/>
			<rect x="6.3" y="12.9" class="st3" width="22.5" height="0.8"/>
			<rect x="6.3" y="14.6" class="st3" width="22.5" height="0.8"/>
			<rect x="6.3" y="16.3" class="st3" width="22.5" height="0.8"/>
		</g>
		<g>
			<path class="st1" d="M23.4,18.8V20c0,0.5-0.4,0.8-0.8,0.8H12.1c-0.5,0-0.8-0.4-0.8-0.8v-1.3H0v12.5h35V18.8H23.4z"/>
			<path class="st5" d="M23.4,19.6v1.3c0,0.5-0.4,0.8-0.8,0.8H12.1c-0.5,0-0.8-0.4-0.8-0.8v-1.3H0v12.5h35V19.6H23.4z"/>
		</g>
	</g>
</g>
</svg>
