<?xml version="1.0" encoding="utf-8"?>
<!-- Generator: Adobe Illustrator 19.0.0, SVG Export Plug-In . SVG Version: 6.00 Build 0)  -->
<svg version="1.1" id="圖層_1" xmlns="http://www.w3.org/2000/svg" xmlns:xlink="http://www.w3.org/1999/xlink" x="0px" y="0px"
	 viewBox="0 0 53.4 45.8" style="enable-background:new 0 0 53.4 45.8;" xml:space="preserve">
<style type="text/css">
	.st0{fill:#E6E6E6;}
	.st1{fill:#1E2C33;}
	.st2{fill:#F5F5F5;}
	.st3{fill:#586874;}
	.st4{fill:#395F73;}
	.st5{fill:#4A6792;}
	.st6{fill:#263740;}
	.st7{fill:#E16B5A;}
	.st8{fill:#CCCCCC;}
	.st9{fill:#406A80;}
	.st10{fill:#C2E2F2;}
	.st11{fill:#242424;}
	.st12{fill:#4D7F99;}
</style>
<g>
	<g>
		<rect x="17" y="29.4" class="st0" width="11.6" height="4.8"/>
		<path class="st1" d="M0,24.3V0.8C0,0.2,0.5,0,1.1,0h43.4c0.6,0,1,0.2,1,0.8v23.5H0z"/>
		<path class="st2" d="M0,24.3v4c0,0.6,0.5,1.3,1.1,1.3h43.4c0.6,0,1-0.7,1-1.3v-4H0z"/>
		<rect x="2.1" y="2.4" class="st3" width="41.3" height="19.6"/>
		<path class="st2" d="M32.3,35.2c0-0.6-0.5-1.1-1.1-1.1H14.3c-0.6,0-1.1,0.5-1.1,1.1l0,0c0,0.6,0.5,1.1,1.1,1.1h16.9
			C31.8,36.3,32.3,35.8,32.3,35.2L32.3,35.2z"/>
		<circle class="st1" cx="22.8" cy="26.7" r="1.1"/>
	</g>
	<g>
		<g>
			<path class="st0" d="M53.4,35.4c0,0.4-0.3,0.7-0.7,0.7h-9.6c-0.4,0-0.7-0.3-0.7-0.7V16.2c0-0.4,0.3-0.7,0.7-0.7h9.6
				c0.4,0,0.7,0.3,0.7,0.7V35.4z"/>
		</g>
		<g>
			<rect x="42.7" y="17.5" class="st4" width="10.5" height="15.1"/>
		</g>
		<g>
			<rect x="42.9" y="17.8" class="st3" width="10.1" height="14.7"/>
		</g>
		<g>
			<circle class="st5" cx="47.9" cy="16.2" r="0.2"/>
		</g>
		<g>
			<path class="st5" d="M49.1,17.1h-2.3c-0.1,0-0.2-0.1-0.2-0.2c0-0.1,0.1-0.2,0.2-0.2h2.3c0.1,0,0.2,0.1,0.2,0.2
				C49.3,17,49.2,17.1,49.1,17.1z"/>
		</g>
		<g>
			<path class="st0" d="M52.1,15.7h-0.9c-0.1,0-0.2-0.1-0.2-0.2s0.1-0.2,0.2-0.2h0.9c0.1,0,0.2,0.1,0.2,0.2S52.2,15.7,52.1,15.7z"/>
		</g>
		<g>
			<path class="st0" d="M42.4,18.4c-0.1,0-0.2-0.1-0.2-0.2v-0.9c0-0.1,0.1-0.2,0.2-0.2c0.1,0,0.2,0.1,0.2,0.2v0.9
				C42.7,18.3,42.6,18.4,42.4,18.4z"/>
		</g>
		<g>
			<path class="st0" d="M42.4,20.1c-0.1,0-0.2-0.1-0.2-0.2v-0.2c0-0.1,0.1-0.2,0.2-0.2c0.1,0,0.2,0.1,0.2,0.2v0.2
				C42.7,19.9,42.6,20.1,42.4,20.1z"/>
		</g>
		<g>
			<path class="st0" d="M42.4,21.2c-0.1,0-0.2-0.1-0.2-0.2v-0.2c0-0.1,0.1-0.2,0.2-0.2c0.1,0,0.2,0.1,0.2,0.2V21
				C42.7,21.1,42.6,21.2,42.4,21.2z"/>
		</g>
		<path class="st5" d="M47.9,33.6c-0.5,0-0.9,0.4-0.9,0.9c0,0.5,0.4,0.9,0.9,0.9c0.5,0,0.9-0.4,0.9-0.9C48.9,34,48.4,33.6,47.9,33.6
			z"/>
	</g>
	<g>
		<path class="st6" d="M20.1,30.6c0-0.3,0.3-0.6,0.6-0.6h6c0.3,0,0.6-0.3,0.6-0.6v-0.9c0-0.3,0.3-0.6,0.6-0.6h18.9
			c0.3,0,0.6,0.3,0.6,0.6v16.7c0,0.3-0.3,0.6-0.6,0.6H20.7c-0.3,0-0.6-0.3-0.6-0.6V30.6z"/>
		<path class="st1" d="M46.9,27.8h-1.3c0.3,0,0.6,0.3,0.6,0.6v16.7c0,0.3-0.3,0.6-0.6,0.6h1.3c0.3,0,0.6-0.3,0.6-0.6V28.4
			C47.5,28.1,47.2,27.8,46.9,27.8z"/>
		<rect x="21" y="29.4" class="st7" width="5.4" height="0.6"/>
		<rect x="21.7" y="28.1" class="st8" width="4.1" height="1.3"/>
		<path class="st2" d="M47.5,31.9v-3.5c0-0.3-0.3-0.6-0.6-0.6H28c-0.3,0-0.6,0.3-0.6,0.6v0.9c0,0.3-0.3,0.6-0.6,0.6h-6
			c-0.3,0-0.6,0.3-0.6,0.6v1.3H47.5z"/>
		<path class="st0" d="M46.9,27.8h-1.3c0.3,0,0.6,0.3,0.6,0.6v3.5h1.3v-3.5C47.5,28.1,47.2,27.8,46.9,27.8z"/>
		<rect x="31.4" y="28.4" class="st9" width="6.3" height="2.8"/>
		<rect x="32.1" y="29.1" class="st10" width="5" height="1.6"/>
		<rect x="39.3" y="28.4" class="st8" width="6.3" height="2.8"/>
		<rect x="39.9" y="29.1" class="st0" width="5" height="1.6"/>
		<rect x="39.9" y="29.7" class="st2" width="5" height="0.3"/>
		<circle class="st11" cx="33.6" cy="38.5" r="6"/>
		<path class="st0" d="M33.6,43.3c-2.6,0-4.7-2.1-4.7-4.7s2.1-4.7,4.7-4.7c2.6,0,4.7,2.1,4.7,4.7S36.2,43.3,33.6,43.3z"/>
		<path class="st8" d="M33.6,42.6c-2.3,0-4.1-1.8-4.1-4.1s1.8-4.1,4.1-4.1s4.1,1.8,4.1,4.1S35.9,42.6,33.6,42.6z"/>
		<circle class="st9" cx="33.6" cy="38.5" r="2.2"/>
		<circle class="st12" cx="32.7" cy="37.6" r="0.3"/>
		<circle class="st12" cx="33" cy="38.8" r="0.6"/>
	</g>
</g>
</svg>
