<?xml version="1.0" encoding="utf-8"?>
<!-- Generator: Adobe Illustrator 19.0.0, SVG Export Plug-In . SVG Version: 6.00 Build 0)  -->
<svg version="1.1" id="圖層_1" xmlns="http://www.w3.org/2000/svg" xmlns:xlink="http://www.w3.org/1999/xlink" x="0px" y="0px"
	 viewBox="0 0 297.9 35" style="enable-background:new 0 0 297.9 35;" xml:space="preserve">
<style type="text/css">
	.st0{fill:#BDCFE6;}
</style>
<g>
	<path class="st0" d="M0.2,28.5C0.6,28,1.3,28,1.8,28.4c2.6,2.1,6.8,4.5,11.3,4.4c3,0,5.7-0.9,7.6-2.3c1.9-1.4,3-3.2,3-5.1
		c0-2-0.9-3.4-2.8-4.7c-1.9-1.2-4.6-2.2-8-2.8h-0.1c-3.2-0.6-6-1.5-8.1-2.9c-2.1-1.4-3.6-3.5-3.6-6c0-2.6,1.4-4.9,3.6-6.4
		C6.8,0.9,9.7,0,13,0c4.5,0,7.9,2.2,10.6,4c0.5,0.3,0.6,1,0.3,1.5c-0.3,0.5-1,0.6-1.5,0.3C19.7,4,16.8,2.2,13,2.2
		c-2.8,0-5.3,0.8-7,2.1C4.2,5.5,3.2,7.2,3.2,9c0.1,1.7,0.8,3,2.6,4.2c1.7,1.2,4.3,2,7.4,2.6h0.1c3.5,0.6,6.5,1.6,8.8,3.2
		c2.3,1.5,3.8,3.7,3.8,6.5c0,2.8-1.6,5.2-3.9,6.9C19.6,34,16.5,35,13.1,35c-5.3,0-9.9-2.7-12.7-5C-0.1,29.6-0.1,29,0.2,28.5z"/>
	<path class="st0" d="M33.2,5.6v28.2c0,0.6-0.5,1.2-1.2,1.2c-0.6,0-1.2-0.6-1.2-1.2V2.2c-0.1-0.5,0-1,0.4-1.3
		c0.5-0.3,1.3-0.2,1.7,0.3l20.9,29V2c0-0.7,0.5-1.2,1.2-1.2c0.7,0,1.2,0.5,1.2,1.2v31.8c0,0.6-0.5,1.2-1.2,1.2
		c-0.4,0-0.7-0.2-0.9-0.4c-0.1,0-0.2-0.1-0.2-0.2L33.2,5.6z"/>
	<path class="st0" d="M102.8,1.4l12.3,29.3l8.8-20.7c0.2-0.4,0.7-0.7,1.1-0.7c0.5,0,1,0.3,1.2,0.7l8.7,20.7l12.3-29.3
		c0.3-0.6,1-0.9,1.6-0.6c0.6,0.2,0.9,1,0.6,1.6l-13.4,31.8c-0.2,0.4-0.7,0.7-1,0.8H135h-0.1c-0.2,0-0.4,0-0.6-0.2
		c0-0.1-0.1-0.1-0.2-0.2c-0.1,0-0.1-0.2-0.2-0.3c0,0,0-0.1,0-0.1l-8.8-20.8l-8.8,20.8c0,0.1,0,0.2-0.1,0.3c-0.1,0.1-0.1,0.3-0.2,0.3
		c-0.1,0-0.1,0.1-0.1,0.1c-0.2,0.1-0.4,0.2-0.7,0.2c-0.3,0-0.5-0.1-0.7-0.3l-0.1-0.1l-0.1-0.1c-0.1-0.1-0.2-0.3-0.3-0.6L100.7,2.4
		c-0.3-0.6,0-1.3,0.6-1.6C101.8,0.5,102.6,0.8,102.8,1.4z"/>
	<path class="st0" d="M177.4,28.5c0.4-0.5,1.1-0.6,1.5-0.2c2.6,2.1,6.8,4.5,11.3,4.4c3,0,5.7-0.9,7.6-2.3c1.9-1.4,2.9-3.2,2.9-5.1
		c0-2-0.9-3.4-2.8-4.7c-1.9-1.2-4.6-2.2-8-2.8h-0.1c-3.2-0.6-6-1.5-8.1-2.9c-2.1-1.4-3.6-3.5-3.6-6c0-2.6,1.4-4.9,3.6-6.4
		c2.2-1.6,5.1-2.5,8.3-2.5c4.5,0,7.9,2.2,10.6,4c0.5,0.3,0.7,1,0.3,1.5c-0.3,0.5-1,0.6-1.5,0.3c-2.7-1.8-5.7-3.6-9.5-3.6
		c-2.8,0-5.3,0.8-7,2.1c-1.7,1.3-2.7,2.9-2.7,4.7c0.1,1.7,0.8,3,2.6,4.2c1.7,1.2,4.3,2,7.4,2.6h0.1c3.5,0.6,6.5,1.6,8.8,3.2
		c2.3,1.5,3.8,3.7,3.8,6.5c0,2.8-1.6,5.2-3.9,6.9c-2.3,1.7-5.4,2.7-8.9,2.7c-5.3,0-9.9-2.7-12.7-5C177.1,29.6,177.1,29,177.4,28.5z"
		/>
	<path class="st0" d="M217.4,2.9H207c-0.6,0-1.2-0.5-1.2-1.2c0-0.6,0.5-1.2,1.2-1.2h23.1c0.7,0,1.2,0.5,1.2,1.2
		c0,0.7-0.5,1.2-1.2,1.2h-10.4v30.9c0,0.6-0.5,1.2-1.2,1.2c-0.7,0-1.2-0.6-1.2-1.2V2.9z"/>
	<path class="st0" d="M251.6,0c9.2,0,16.5,7.8,16.5,17.5c0,9.6-7.3,17.5-16.5,17.5c-9.3,0-16.6-7.8-16.7-17.5
		C235,7.8,242.3,0,251.6,0z M251.6,32.5c7.6,0,14-6.6,14-15.1c0-8.5-6.4-15-14-15c-7.8,0-14.2,6.5-14.2,15
		C237.4,25.9,243.8,32.5,251.6,32.5z"/>
	<path class="st0" d="M277.2,1.7c0-0.6,0.5-1.2,1.2-1.2h0.1h9.6c5.4,0,9.8,4.4,9.8,9.9c0,5.4-4.4,9.8-9.8,9.8l-8.5,0.1v13.5
		c0,0.6-0.5,1.2-1.2,1.2c-0.6,0-1.2-0.6-1.2-1.2V1.7z M288.1,17.8c4.1,0,7.4-3.4,7.4-7.5c0-4.1-3.3-7.4-7.4-7.4h-8.5v14.9H288.1z"/>
	<g>
		<g id="XMLID_156_">
			<path id="XMLID_157_" class="st0" d="M80.7,0.6c-9.3,0-16.8,7.5-16.8,16.8c0,9.3,7.5,16.8,16.8,16.8c3.6,0,6.9-1.1,9.6-3h0v-7.5
				h-0.7v7h-0.5v-7H86v7h-0.5v-7H85v7.5h-0.7v-7.5h-3.5v7h-0.5v-7h-0.7v7.5H79v-7.5l-1-1.5c0,0-0.3,0.3-0.7,0.2
				c-0.3-0.1-1.9-1.2-2.1-1.8L75.2,20c0,0-1-1-1.2-1.2c-0.2-0.2,0.1-0.3,0.3-0.2c0.2,0.2,1.1,1.4,2.3,1.6c1.3,0.2,4-0.7,4-0.7v-2.2
				c0,0-2-0.3-2.4-0.7c-0.4-0.4-1-1.4-1.1-1.6c-0.1-0.2-0.1-0.8-0.1-0.8l-1.1-1c0,0-0.1-0.3,0.2-0.2c0.3,0.1,1.1,0.8,1.5,0.9
				c0.5,0.1,2.5,0.6,3.6,0c1.1-0.7,2.3-1.2,2.6-1.7c0.3-0.5,0.5-1.9,0.5-2.6c-0.1-0.7,0.4-0.6,0.4,0c0,0-0.1,2.2,0.4,2.7
				c0.5,0.5,2.5,1.4,3.4,1.6c0.8,0.2,2.3,0.4,3.9-0.2l1.2-1.3c0,0,0.4-0.1,0.2,0.2c-0.2,0.3-1.1,1.2-1.1,1.4c0,0.2-1,2.8-1.7,3
				c-0.6,0.2-1.8,0.3-1.8,0.3v2.2c0,0,1.4,0.3,2.6,0.3c1.2,0,2.6-0.3,2.9-0.6c0.3-0.3,1.2-1.8,1.5-1.6c0.2,0.2-1,1.6-1.1,1.8
				c0,0.2,0,0.6-0.1,0.9c-0.1,0.3-2,2.2-2.5,2.2c-0.5,0.1-0.7-0.5-0.9-0.2c-0.1,0.3-0.5,1.4-0.5,1.4h0v7c4-3.1,6.5-7.9,6.5-13.3
				C97.5,8.1,90,0.6,80.7,0.6z M75.4,24.2c0.5,0,0.8,0.4,0.8,0.8c0,0.5-0.4,0.8-0.8,0.8c-0.5,0-0.8-0.4-0.8-0.8
				C74.5,24.6,74.9,24.2,75.4,24.2z M66.4,19c-0.5,0-0.8-0.4-0.8-0.8c0-0.5,0.4-0.8,0.8-0.8c0.5,0,0.8,0.4,0.8,0.8
				C67.2,18.6,66.8,19,66.4,19z M69.3,14.6c-0.2,0-0.4-0.2-0.4-0.4c0-0.2,0.2-0.4,0.4-0.4c0.2,0,0.4,0.2,0.4,0.4
				C69.8,14.4,69.6,14.6,69.3,14.6z M69.2,10.7c-0.5,0-0.8-0.4-0.8-0.8c0-0.5,0.4-0.8,0.8-0.8C69.7,9,70,9.4,70,9.8
				C70,10.3,69.7,10.7,69.2,10.7z M70.8,21.3c0.2,0,0.4,0.2,0.4,0.4c0,0.2-0.2,0.4-0.4,0.4c-0.2,0-0.4-0.2-0.4-0.4
				C70.4,21.5,70.6,21.3,70.8,21.3z M71.4,29.2c-0.5,0-0.8-0.4-0.8-0.8c0-0.5,0.4-0.8,0.8-0.8c0.5,0,0.8,0.4,0.8,0.8
				C72.2,28.8,71.8,29.2,71.4,29.2z M73,16.9c-0.5,0-0.8-0.4-0.8-0.8c0-0.5,0.4-0.8,0.8-0.8c0.5,0,0.8,0.4,0.8,0.8
				C73.9,16.5,73.5,16.9,73,16.9z M73,6.2c-0.5,0-0.8-0.4-0.8-0.8c0-0.5,0.4-0.8,0.8-0.8c0.5,0,0.8,0.4,0.8,0.8
				C73.9,5.8,73.5,6.2,73,6.2z M75.8,10.1c-0.2,0-0.4-0.2-0.4-0.4c0-0.2,0.2-0.4,0.4-0.4c0.2,0,0.4,0.2,0.4,0.4
				C76.3,9.9,76.1,10.1,75.8,10.1z M78.5,3.7c-0.5,0-0.8-0.4-0.8-0.8c0-0.5,0.4-0.8,0.8-0.8c0.5,0,0.8,0.4,0.8,0.8
				C79.4,3.3,79,3.7,78.5,3.7z M80.3,11.6c-0.2,0-0.4-0.2-0.4-0.4c0-0.2,0.2-0.4,0.4-0.4c0.2,0,0.4,0.2,0.4,0.4
				C80.8,11.4,80.6,11.6,80.3,11.6z M82.3,7.7c-0.5,0-0.8-0.4-0.8-0.8c0-0.5,0.4-0.8,0.8-0.8c0.5,0,0.8,0.4,0.8,0.8
				C83.2,7.3,82.8,7.7,82.3,7.7z M87,6c-0.5,0-0.8-0.4-0.8-0.8c0-0.5,0.4-0.8,0.8-0.8c0.5,0,0.8,0.4,0.8,0.8C87.9,5.7,87.5,6,87,6z
				 M89.3,11.4c-0.5,0-0.8-0.4-0.8-0.8c0-0.5,0.4-0.8,0.8-0.8c0.5,0,0.8,0.4,0.8,0.8C90.2,11,89.8,11.4,89.3,11.4z"/>
		</g>
	</g>
</g>
</svg>
