<?xml version="1.0" encoding="utf-8"?>
<!-- Generator: Adobe Illustrator 19.0.0, SVG Export Plug-In . SVG Version: 6.00 Build 0)  -->
<svg version="1.1" id="圖層_1" xmlns="http://www.w3.org/2000/svg" xmlns:xlink="http://www.w3.org/1999/xlink" x="0px" y="0px"
	 viewBox="0 0 45 45" style="enable-background:new 0 0 45 45;" xml:space="preserve">
<style type="text/css">
	.st0{fill:#FFFFFF;}
	.st1{fill:#4D4D4D;}
</style>
<g>
	<circle class="st0" cx="22.5" cy="22.5" r="22.5"/>
	<g>
		<g id="XMLID_193_">
			<path id="XMLID_194_" class="st1" d="M22.5,0C10.1,0,0,10.1,0,22.5C0,34.9,10.1,45,22.5,45c4.8,0,9.2-1.5,12.9-4.1h0v-10h-0.9
				v9.4h-0.7v-9.4h-4.2v9.4h-0.6v-9.4h-0.7v10h-0.9v-10h-4.7v9.4H22v-9.4h-0.9v10h-0.9v-10l-1.3-2c0,0-0.4,0.4-0.9,0.3
				c-0.4-0.1-2.5-1.7-2.8-2.4L15.1,26c0,0-1.4-1.4-1.6-1.6c-0.2-0.2,0.2-0.5,0.4-0.2c0.2,0.2,1.4,1.9,3.1,2.1
				c1.7,0.2,5.4-0.9,5.4-0.9v-3c0,0-2.6-0.3-3.2-0.9c-0.5-0.5-1.3-1.8-1.5-2.2c-0.2-0.3-0.1-1.1-0.1-1.1l-1.5-1.3
				c0,0-0.1-0.4,0.2-0.3c0.3,0.2,1.4,1,2,1.2c0.6,0.2,3.3,0.8,4.8,0c1.4-0.9,3.1-1.7,3.5-2.3c0.4-0.6,0.7-2.5,0.6-3.5
				c-0.1-1,0.5-0.7,0.5,0c0,0-0.1,2.9,0.5,3.6c0.7,0.7,3.3,1.8,4.5,2.2c1.1,0.3,3,0.5,5.2-0.3l1.6-1.8c0,0,0.5-0.2,0.3,0.3
				c-0.3,0.4-1.5,1.6-1.5,1.9c0,0.3-1.3,3.8-2.2,4c-0.9,0.3-2.4,0.4-2.4,0.4v2.9c0,0,1.8,0.4,3.5,0.4c1.6,0,3.4-0.4,3.9-0.9
				c0.4-0.5,1.6-2.4,2-2.1c0.3,0.2-1.4,2.2-1.5,2.4c-0.1,0.2,0,0.8-0.2,1.1c-0.1,0.4-2.6,2.9-3.3,3c-0.7,0.1-1-0.6-1.1-0.2
				c-0.1,0.4-0.7,1.9-0.7,1.9h0v9.4c5.3-4.1,8.7-10.6,8.7-17.8C45,10.1,34.9,0,22.5,0z M15.3,31.6c0.6,0,1.1,0.5,1.1,1.1
				c0,0.6-0.5,1.1-1.1,1.1c-0.6,0-1.1-0.5-1.1-1.1C14.2,32.1,14.7,31.6,15.3,31.6z M3.3,24.6c-0.6,0-1.1-0.5-1.1-1.1
				c0-0.6,0.5-1.1,1.1-1.1c0.6,0,1.1,0.5,1.1,1.1C4.4,24.2,3.9,24.6,3.3,24.6z M7.3,18.8c-0.3,0-0.6-0.2-0.6-0.6
				c0-0.3,0.2-0.6,0.6-0.6c0.3,0,0.6,0.3,0.6,0.6C7.9,18.5,7.6,18.8,7.3,18.8z M7.1,13.5C6.5,13.5,6,13,6,12.4
				c0-0.6,0.5-1.1,1.1-1.1c0.6,0,1.1,0.5,1.1,1.1C8.2,13,7.7,13.5,7.1,13.5z M9.3,27.7c0.3,0,0.6,0.2,0.6,0.6c0,0.3-0.3,0.6-0.6,0.6
				c-0.3,0-0.6-0.2-0.6-0.6C8.7,27.9,9,27.7,9.3,27.7z M10,38.3c-0.6,0-1.1-0.5-1.1-1.1c0-0.7,0.5-1.1,1.1-1.1
				c0.6,0,1.1,0.5,1.1,1.1C11.1,37.8,10.6,38.3,10,38.3z M12.2,21.8c-0.6,0-1.1-0.5-1.1-1.1c0-0.6,0.5-1.1,1.1-1.1
				c0.6,0,1.1,0.5,1.1,1.1C13.3,21.3,12.8,21.8,12.2,21.8z M12.2,7.5c-0.6,0-1.1-0.5-1.1-1.1c0-0.6,0.5-1.1,1.1-1.1
				c0.6,0,1.1,0.5,1.1,1.1C13.3,7,12.8,7.5,12.2,7.5z M16,12.7c-0.3,0-0.6-0.2-0.6-0.6c0-0.3,0.3-0.6,0.6-0.6c0.3,0,0.6,0.3,0.6,0.6
				C16.5,12.5,16.3,12.7,16,12.7z M19.6,4.1c-0.6,0-1.1-0.5-1.1-1.1c0-0.6,0.5-1.1,1.1-1.1c0.6,0,1.1,0.5,1.1,1.1
				C20.7,3.6,20.2,4.1,19.6,4.1z M22,14.8c-0.3,0-0.6-0.3-0.6-0.6c0-0.3,0.3-0.6,0.6-0.6c0.3,0,0.6,0.2,0.6,0.6
				C22.6,14.5,22.3,14.8,22,14.8z M24.7,9.5c-0.6,0-1.1-0.5-1.1-1.1c0-0.6,0.5-1.1,1.1-1.1c0.6,0,1.1,0.5,1.1,1.1
				C25.8,9,25.3,9.5,24.7,9.5z M30.9,7.3c-0.6,0-1.1-0.5-1.1-1.1c0-0.6,0.5-1.1,1.1-1.1c0.6,0,1.1,0.5,1.1,1.1
				C32.1,6.8,31.5,7.3,30.9,7.3z M34.1,14.4c-0.6,0-1.1-0.5-1.1-1.1c0-0.6,0.5-1.1,1.1-1.1c0.6,0,1.1,0.5,1.1,1.1
				C35.2,13.9,34.7,14.4,34.1,14.4z"/>
		</g>
	</g>
</g>
</svg>
